<?xml version="1.0" encoding="UTF-8"?>
<svg width="768px" height="114px" viewBox="0 0 768 114" version="1.1" xmlns="http://www.w3.org/2000/svg" xmlns:xlink="http://www.w3.org/1999/xlink">
    <!-- Generator: Sketch 45.1 (43504) - http://www.bohemiancoding.com/sketch -->
    <title>Group 2</title>
    <desc>Created with Sketch.</desc>
    <defs>
        <filter x="-0.2%" y="-1.3%" width="100.8%" height="105.4%" filterUnits="objectBoundingBox" id="filter-1">
            <feOffset dx="3" dy="3" in="SourceAlpha" result="shadowOffsetOuter1"></feOffset>
            <feColorMatrix values="0 0 0 0 0.580392157   0 0 0 0 0.352941176   0 0 0 0 0.988235294  0 0 0 1 0" type="matrix" in="shadowOffsetOuter1" result="shadowMatrixOuter1"></feColorMatrix>
            <feMerge>
                <feMergeNode in="shadowMatrixOuter1"></feMergeNode>
                <feMergeNode in="SourceGraphic"></feMergeNode>
            </feMerge>
        </filter>
        <polygon id="path-2" points="47.0966576 37.2680983 66.9077323 0.30321966 91.9437059 0.30321966 61.1748572 53.4678459 92.7419543 107.516095 67.4157086 107.516095 47.0966576 69.9621344 26.7776065 107.516095 1.45136079 107.516095 33.0184579 53.4678459 2.24960922 0.30321966 27.2855828 0.30321966"></polygon>
        <polygon id="path-4" points="177.138584 39.7139267 196.949659 2.74904808 221.985632 2.74904808 191.216784 55.9136743 222.783881 109.961923 197.457635 109.961923 177.138584 72.4079628 156.819533 109.961923 131.493287 109.961923 163.060384 55.9136743 132.291536 2.74904808 157.327509 2.74904808"></polygon>
        <linearGradient x1="100%" y1="0%" x2="0%" y2="100%" id="linearGradient-6">
            <stop stop-color="#E6D5FF" offset="0%"></stop>
            <stop stop-color="#9358FC" offset="100%"></stop>
        </linearGradient>
    </defs>
    <g id="Page-1" stroke="none" stroke-width="1" fill="none" fill-rule="evenodd">
        <g id="Artboard-2" transform="translate(-24.000000, -80.000000)">
            <g id="Group-2" filter="url(#filter-1)" transform="translate(23.875453, 79.512979)">
                <path d="M21.9155479,72.1870572 L21.9155479,109.961923 L0.145136079,109.961923 L0.145136079,2.74904808 L41.3637824,2.74904808 C49.2979277,2.74904808 56.2764844,4.22173768 62.2996618,7.16716106 C68.3228392,10.1125844 72.9550527,14.2974774 76.1964413,19.7219655 C79.43783,25.1464535 81.0585,31.3194774 81.0585,38.2412224 C81.0585,48.7465658 77.5147962,57.0304448 70.4272822,63.0931079 C63.3397683,69.1557711 53.5310864,72.1870572 41.0009422,72.1870572 L21.9155479,72.1870572 Z M21.9155479,54.2936996 L41.3637824,54.2936996 C47.1208757,54.2936996 51.5111982,52.9191893 54.5348816,50.1701275 C57.558565,47.4210656 59.070384,43.4938934 59.070384,38.3884928 C59.070384,33.1358211 57.5464705,28.8895661 54.4985976,25.6496004 C51.4507247,22.4096347 47.2418205,20.7405864 41.8717587,20.6424057 L21.9155479,20.6424057 L21.9155479,54.2936996 Z" id="P" fill="#FFFFFF"></path>
                <path d="M119.156721,109.961923 L97.3863088,109.961923 L97.3863088,2.74904808 L119.156721,2.74904808 L119.156721,109.961923 Z M297.311257,63.4981016 L255.512067,63.4981016 L255.512067,92.215836 L304.568061,92.215836 L304.568061,109.961923 L233.741655,109.961923 L233.741655,2.74904808 L304.422925,2.74904808 L304.422925,20.6424057 L255.512067,20.6424057 L255.512067,46.1938258 L297.311257,46.1938258 L297.311257,63.4981016 Z M339.110448,92.215836 L385.336289,92.215836 L385.336289,109.961923 L317.340036,109.961923 L317.340036,2.74904808 L339.110448,2.74904808 L339.110448,92.215836 Z M461.387594,63.4981016 L419.588404,63.4981016 L419.588404,92.215836 L468.644398,92.215836 L468.644398,109.961923 L397.817992,109.961923 L397.817992,2.74904808 L468.499262,2.74904808 L468.499262,20.6424057 L419.588404,20.6424057 L419.588404,46.1938258 L461.387594,46.1938258 L461.387594,63.4981016 Z M567.336932,109.961923 L545.56652,109.961923 L503.186785,39.4193859 L503.186785,109.961923 L481.416373,109.961923 L481.416373,2.74904808 L503.186785,2.74904808 L545.639088,73.4388558 L545.639088,2.74904808 L567.336932,2.74904808 L567.336932,109.961923 Z M665.884329,20.6424057 L633.518984,20.6424057 L633.518984,109.961923 L611.748572,109.961923 L611.748572,20.6424057 L579.818635,20.6424057 L579.818635,2.74904808 L665.884329,2.74904808 L665.884329,20.6424057 Z M765.084839,58.7854478 C765.084839,69.3398816 763.246467,78.5932812 759.569668,86.5459244 C755.892869,94.4985675 750.631739,100.634774 743.78612,104.954728 C736.9405,109.274683 729.091136,111.434628 720.237791,111.434628 C711.481204,111.434628 703.668123,109.299228 696.798314,105.028364 C689.928505,100.7575 684.606902,94.6581103 680.833345,86.7300124 C677.059788,78.8019145 675.148849,69.6835113 675.10047,59.3745295 L675.10047,54.0727939 C675.10047,43.5183601 676.975126,34.2281432 680.724493,26.2018645 C684.473861,18.1755858 689.771275,12.0148343 696.616894,7.71942519 C703.462513,3.42401609 711.287689,1.27634375 720.092655,1.27634375 C728.897621,1.27634375 736.722796,3.42401609 743.568415,7.71942519 C750.414035,12.0148343 755.711449,18.1755858 759.460816,26.2018645 C763.210183,34.2281432 765.084839,43.4938153 765.084839,53.9991587 L765.084839,58.7854478 Z M743.024155,53.9255235 C743.024155,42.6838242 741.040649,34.1422246 737.073576,28.3004682 C733.106503,22.4587118 727.446253,19.5378774 720.092655,19.5378774 C712.787436,19.5378774 707.151374,22.4218946 703.184301,28.1900154 C699.217229,33.9581361 697.209533,42.4138289 697.161154,53.5573474 L697.161154,58.7854478 C697.161154,69.7326047 699.144661,78.2251147 703.111733,84.2632327 C707.078806,90.3013506 712.787435,93.3203643 720.237791,93.3203643 C727.54301,93.3203643 733.154882,90.4118023 737.073576,84.5945911 C740.99227,78.7773799 742.975776,70.2971423 743.024155,59.1536239 L743.024155,53.9255235 Z" id="pixelento" fill="#FFFFFF"></path>
                <g id="Group" transform="translate(130.041927, 2.445828)">
                    <mask id="mask-3" fill="white">
                        <use xlink:href="#path-2"></use>
                    </mask>
                    <use id="pixelento-copy" fill="#FFFFFF" xlink:href="#path-2"></use>
                    <path d="M55.7322542,-2.44582842 L95.9833267,-2.44582842 L94.7950251,22.2442131 C69.610084,45.3925117 52.3094548,61.6808501 42.8931376,71.1092282 C18.4864526,95.5471745 5.90416787,107.31053 2.83015354,107.31053 C-1.37672459,107.31053 7.52688197,89.0458544 32.8393056,53.7646879 C35.4310291,50.1522709 40.2164881,44.5255688 47.1956827,36.8845816 L55.7322542,-2.44582842 Z" id="Rectangle" fill="#C9ABFF" mask="url(#mask-3)"></path>
                </g>
                <mask id="mask-5" fill="white">
                    <use xlink:href="#path-4"></use>
                </mask>
                <use id="pixelento-copy" fill="#FFFFFF" xlink:href="#path-4"></use>
                <path d="M185.774181,0 L226.025253,0 L224.836952,24.6900415 C199.652011,47.8383401 182.351381,64.1266785 172.935064,73.5550566 C148.528379,97.9930029 132.592668,110.752158 129.518654,110.752158 C125.311776,110.752158 137.568809,91.4916828 162.881232,56.2105163 C165.472956,52.5980993 170.258415,46.9713972 177.237609,39.33041 L185.774181,0 Z" id="Rectangle" fill="url(#linearGradient-6)" mask="url(#mask-5)"></path>
            </g>
        </g>
    </g>
</svg>