<?xml version="1.0" encoding="UTF-8"?>
<svg width="248px" height="36px" viewBox="0 0 248 36" version="1.1" xmlns="http://www.w3.org/2000/svg" xmlns:xlink="http://www.w3.org/1999/xlink">
    <!-- Generator: Sketch 45.1 (43504) - http://www.bohemiancoding.com/sketch -->
    <title>Group 2</title>
    <desc>Created with Sketch.</desc>
    <defs>
        <polygon id="path-1" points="15.2109375 12.640625 21.609375 0.875 29.6953125 0.875 19.7578125 17.796875 29.953125 35 21.7734375 35 15.2109375 23.046875 8.6484375 35 0.46875 35 10.6640625 17.796875 0.7265625 0.875 8.8125 0.875"></polygon>
    </defs>
    <g id="Page-1" stroke="none" stroke-width="1" fill="none" fill-rule="evenodd">
        <g id="iPhone-7-Plus" transform="translate(-83.000000, -459.000000)">
            <g id="Group-2" transform="translate(83.000000, 459.000000)">
                <path d="M7.078125,22.9765625 L7.078125,35 L0.046875,35 L0.046875,0.875 L13.359375,0.875 C15.9218878,0.875 18.1757715,1.34374531 20.1210938,2.28125 C22.066416,3.21875469 23.5624948,4.55077262 24.609375,6.27734375 C25.6562552,8.00391488 26.1796875,9.96873898 26.1796875,12.171875 C26.1796875,15.5156417 25.0351677,18.1523341 22.7460938,20.0820312 C20.4570198,22.0117284 17.2890827,22.9765625 13.2421875,22.9765625 L7.078125,22.9765625 Z M7.078125,17.28125 L13.359375,17.28125 C15.2187593,17.28125 16.6367139,16.8437544 17.6132813,15.96875 C18.5898486,15.0937456 19.078125,13.8437581 19.078125,12.21875 C19.078125,10.5468666 18.5859424,9.19531766 17.6015625,8.1640625 C16.6171826,7.13280734 15.2578212,6.60156266 13.5234375,6.5703125 L7.078125,6.5703125 L7.078125,17.28125 Z" id="P" fill="#FFFFFF"></path>
                <path d="M38.484375,35 L31.453125,35 L31.453125,0.875 L38.484375,0.875 L38.484375,35 Z M96.0234375,20.2109375 L82.5234375,20.2109375 L82.5234375,29.3515625 L98.3671875,29.3515625 L98.3671875,35 L75.4921875,35 L75.4921875,0.875 L98.3203125,0.875 L98.3203125,6.5703125 L82.5234375,6.5703125 L82.5234375,14.703125 L96.0234375,14.703125 L96.0234375,20.2109375 Z M109.523438,29.3515625 L124.453125,29.3515625 L124.453125,35 L102.492188,35 L102.492188,0.875 L109.523438,0.875 L109.523438,29.3515625 Z M149.015625,20.2109375 L135.515625,20.2109375 L135.515625,29.3515625 L151.359375,29.3515625 L151.359375,35 L128.484375,35 L128.484375,0.875 L151.3125,0.875 L151.3125,6.5703125 L135.515625,6.5703125 L135.515625,14.703125 L149.015625,14.703125 L149.015625,20.2109375 Z M183.234375,35 L176.203125,35 L162.515625,12.546875 L162.515625,35 L155.484375,35 L155.484375,0.875 L162.515625,0.875 L176.226562,23.375 L176.226562,0.875 L183.234375,0.875 L183.234375,35 Z M215.0625,6.5703125 L204.609375,6.5703125 L204.609375,35 L197.578125,35 L197.578125,6.5703125 L187.265625,6.5703125 L187.265625,0.875 L215.0625,0.875 L215.0625,6.5703125 Z M247.101562,18.7109375 C247.101562,22.0703293 246.507818,25.0156123 245.320312,27.546875 C244.132807,30.0781377 242.433605,32.0312431 240.222656,33.40625 C238.011708,34.7812569 235.476577,35.46875 232.617188,35.46875 C229.789048,35.46875 227.265636,34.7890693 225.046875,33.4296875 C222.828114,32.0703057 221.109381,30.1289189 219.890625,27.6054687 C218.671869,25.0820186 218.054688,22.1797039 218.039062,18.8984375 L218.039062,17.2109375 C218.039062,13.8515457 218.644525,10.894544 219.855469,8.33984375 C221.066412,5.78514348 222.777333,3.82422559 224.988281,2.45703125 C227.19923,1.08983691 229.726548,0.40625 232.570312,0.40625 C235.414077,0.40625 237.941395,1.08983691 240.152344,2.45703125 C242.363292,3.82422559 244.074213,5.78514348 245.285156,8.33984375 C246.4961,10.894544 247.101562,13.8437333 247.101562,17.1875 L247.101562,18.7109375 Z M239.976562,17.1640625 C239.976562,13.5859196 239.335944,10.8671968 238.054688,9.0078125 C236.773431,7.1484282 234.945324,6.21875 232.570312,6.21875 C230.210926,6.21875 228.390631,7.13670957 227.109375,8.97265625 C225.828119,10.8086029 225.179688,13.4999823 225.164062,17.046875 L225.164062,18.7109375 C225.164062,22.1953299 225.804681,24.8984279 227.085938,26.8203125 C228.367194,28.7421971 230.210925,29.703125 232.617188,29.703125 C234.976574,29.703125 236.789056,28.777353 238.054688,26.9257812 C239.320319,25.0742095 239.960937,22.3750177 239.976562,18.828125 L239.976562,17.1640625 Z" id="pixelento" fill="#FFFFFF"></path>
                <g id="Group" transform="translate(42.000000, 0.000000)">
                    <mask id="mask-2" fill="white">
                        <use xlink:href="#path-1"></use>
                    </mask>
                    <use id="pixelento-copy" fill="#FFFFFF" xlink:href="#path-1"></use>
                    <path d="M18,0 L31,0 L30.6162109,7.85864258 C22.482161,15.2265608 16.894529,20.4110085 13.8533151,23.4119858 C5.97062062,31.1903885 0.0892234606,35.2148436 0.172607422,35.2836914 C0.454101563,35.5161133 2.43097785,29.1210703 10.6062012,17.8913574 C11.4432573,16.741554 12.9888302,14.9506198 15.2429199,12.5185547 L18,0 Z" id="Rectangle" fill="#C9ABFF" mask="url(#mask-2)"></path>
                </g>
            </g>
        </g>
    </g>
</svg>